<svg width="96" height="33" viewBox="0 0 96 33" fill="none" xmlns="http://www.w3.org/2000/svg">
<path fill-rule="evenodd" clip-rule="evenodd" d="M47.1 0.6H54V0H47.1V0.6ZM47.1 32.1H54V31.5H47.1V32.1ZM0 23.2H15.3V18.8H6.9L14.9 9.9V6.1H0.5V10.5H8L0 19.1V23.2ZM69.6 23.2H71V18.5C71 18.1 71.1 17.8 71.2 17.5C71.3 17.2 71.5 16.9 71.7 16.7C71.9 16.5 72.2 16.3 72.5 16.2C72.8 16.1 73 16 73.4 16C73.9 16 74.3 16.1 74.6 16.4C74.9 16.7 75 17.1 75 17.6V23.2H76.4V17.8C76.4 17.4 76.4 16.9 76.3 16.6C76.2 16.3 76.1 15.9 75.8 15.6C75.6 15.3 75.3 15.1 74.9 15C74.5 14.9 74.1 14.8 73.5 14.8C73.3 14.8 73 14.8 72.7 14.9C72.4 15 72.2 15 72 15.1C71.8 15.2 71.5 15.4 71.4 15.5C71.2 15.7 71.1 15.9 70.9 16.1V11.7H69.5V23.2H69.6ZM79.8 18C79.9 17.6 80 17.3 80.2 17C80.4 16.7 80.6 16.5 81 16.3C81.3 16.1 81.7 16 82.2 16C82.7 16 83.1 16.1 83.4 16.3C83.7 16.5 84 16.7 84.2 17C84.4 17.3 84.6 17.6 84.7 18C84.9 18.8 84.9 19.6 84.7 20.3C84.6 20.7 84.5 21 84.3 21.3C84.1 21.6 83.8 21.8 83.5 22C83.2 22.2 82.8 22.3 82.3 22.3C81.9 22.3 81.5 22.2 81.2 22C80.9 21.8 80.6 21.6 80.4 21.3C80.2 21 80 20.7 79.9 20.3C79.8 19.9 79.7 19.6 79.7 19.2C79.6 18.8 79.7 18.4 79.8 18ZM86 11.8H84.6V16.1C84.5 15.9 84.3 15.7 84 15.5C83.8 15.3 83.6 15.2 83.3 15.1C83.1 15 82.8 14.9 82.6 14.9C82.4 14.9 82.1 14.8 81.9 14.8C81.3 14.8 80.7 14.9 80.2 15.1C79.7 15.3 79.3 15.6 79 16C78.7 16.4 78.4 16.9 78.3 17.4C78.1 17.9 78.1 18.5 78.1 19.1C78.1 19.7 78.2 20.2 78.3 20.8C78.5 21.3 78.7 21.8 79 22.2C79.3 22.6 79.7 22.9 80.2 23.2C80.7 23.4 81.2 23.6 81.9 23.6C82.5 23.6 83 23.5 83.5 23.3C84 23.1 84.3 22.8 84.6 22.3V23.4H86V11.8ZM88.2 23.2H89.6V20.1L90.9 18.9L93.7 23.2H95.4L91.9 18L95.2 15H93.4L89.6 18.6V11.8H88.2V23.2Z" fill="black"/>
</svg>
